<svg xmlns="http://www.w3.org/2000/svg" viewBox="0 0 24 24">
  <path d="M12 2.163c3.204 0 3.584.012 4.849.07 1.366.062 2.633.352 3.608 1.326.975.975 1.264 2.242 1.326 3.608.058 1.265.07 1.645.07 4.849s-.012 3.584-.07 4.849c-.062 1.366-.352 2.633-1.326 3.608-.975.975-2.242 1.264-3.608 1.326-1.265.058-1.645.07-4.849.07s-3.584-.012-4.849-.07c-1.366-.062-2.633-.352-3.608-1.326-.975-.975-1.264-2.242-1.326-3.608-.058-1.265-.07-1.645-.07-4.849s.012-3.584.07-4.849c.062-1.366.352-2.633 1.326-3.608.975-.975 2.242-1.264 3.608-1.326 1.265-.058 1.645-.07 4.849-.07zm0-2.163c-3.259 0-3.67.014-4.947.072-1.495.067-2.788.383-3.898 1.493-1.11 1.11-1.426 2.403-1.493 3.898-.058 1.277-.072 1.688-.072 4.947s.014 3.67.072 4.947c.067 1.495.383 2.788 1.493 3.898 1.11 1.11 2.403 1.426 3.898 1.493 1.277.058 1.688.072 4.947.072s3.67-.014 4.947-.072c1.495-.067 2.788-.383 3.898-1.493 1.11-1.11 1.426-2.403 1.493-3.898.058-1.277.072-1.688.072-4.947s-.014-3.67-.072-4.947c-.067-1.495-.383-2.788-1.493-3.898-1.11-1.11-2.403-1.426-3.898-1.493-1.277-.058-1.688-.072-4.947-.072zm0 5.838c-3.403 0-6.163 2.76-6.163 6.163s2.76 6.163 6.163 6.163 6.163-2.76 6.163-6.163-2.76-6.163-6.163-6.163zm0 10.163c-2.206 0-4-1.794-4-4s1.794-4 4-4 4 1.794 4 4-1.794 4-4 4zm6.406-11.845c-.796 0-1.441-.645-1.441-1.441s.645-1.441 1.441-1.441 1.441.645 1.441 1.441-.645 1.441-1.441 1.441z"/>
</svg>
